<?xml version="1.0" standalone="no"?>
<!DOCTYPE svg PUBLIC "-//W3C//DTD SVG 20010904//EN"
 "http://www.w3.org/TR/2001/REC-SVG-20010904/DTD/svg10.dtd">
<svg version="1.0" xmlns="http://www.w3.org/2000/svg"
 width="720.000000pt" height="720.000000pt" viewBox="0 0 720.000000 720.000000"
 preserveAspectRatio="xMidYMid meet">

<g transform="translate(0.000000,720.000000) scale(0.100000,-0.100000)"
fill="#000000" stroke="none">
<path d="M0 3600 l0 -3600 3600 0 3600 0 0 3600 0 3600 -3600 0 -3600 0 0
-3600z m3729 2515 c71 -15 179 -59 216 -89 36 -28 -81 -21 -172 11 -77 27 -80
27 -358 28 -309 0 -341 -4 -460 -60 -131 -62 -228 -174 -280 -322 l-25 -68 0
-648 0 -648 25 -76 c56 -165 188 -297 356 -355 61 -21 80 -22 364 -23 282 0
304 1 370 22 107 34 200 99 277 195 42 52 58 82 89 168 23 64 23 73 27 568 l3
502 30 0 29 0 0 -493 c0 -464 -1 -497 -20 -566 -59 -210 -204 -364 -410 -433
-60 -21 -88 -23 -359 -26 -334 -4 -384 3 -512 64 -100 48 -219 168 -272 274
-66 133 -67 149 -67 829 0 573 1 612 20 685 54 212 202 376 398 440 105 34 94
33 394 35 202 1 284 -3 337 -14z m275 -180 c97 -41 161 -144 154 -247 -2 -32
-7 -60 -10 -64 -17 -16 -76 12 -124 61 -39 39 -56 66 -68 105 -18 62 -20 113
-6 141 13 23 9 23 54 4z m295 6 c11 -7 12 -26 7 -92 -26 -290 -154 -487 -390
-594 -111 -51 -210 -79 -498 -144 -306 -68 -400 -127 -488 -301 -56 -110 -61
-144 -66 -395 l-5 -230 -27 0 -27 0 -3 800 c-1 440 0 810 3 823 l5 22 388 0
c380 0 388 -1 453 -24 165 -58 265 -182 294 -364 5 -34 3 -47 -11 -63 -25 -28
-44 -24 -44 11 0 142 -85 279 -216 345 l-59 30 -377 3 -378 3 0 -448 c0 -246
3 -458 6 -471 6 -22 7 -21 23 8 62 113 155 194 274 240 72 28 129 43 447 116
361 83 531 215 605 469 14 49 28 123 32 165 7 91 19 112 52 91z m99 -273 c7
-7 12 -24 12 -38 0 -50 -55 -69 -84 -29 -33 47 32 107 72 67z m-806 -170 c3
-58 -4 -112 -17 -145 -32 -77 -158 -174 -188 -144 -7 7 -12 38 -11 74 1 62 22
120 62 169 26 31 103 78 129 78 19 0 23 -6 25 -32z m933 18 c22 -10 35 -22 35
-33 0 -23 -62 -84 -110 -109 -64 -34 -250 -19 -250 20 0 24 62 85 112 110 60
30 156 35 213 12z m-713 -123 c26 -30 5 -83 -33 -83 -40 0 -65 60 -37 88 17
17 53 15 70 -5z m-782 -234 c30 -54 -34 -106 -72 -59 -22 27 -23 44 -2 64 22
23 61 20 74 -5z m954 -5 c60 -30 83 -49 102 -86 19 -36 20 -34 -26 -52 -47
-19 -132 -21 -181 -5 -45 15 -113 67 -133 101 -17 27 -16 27 21 47 57 30 151
28 217 -5z m-502 -71 c33 -30 12 -83 -34 -83 -46 0 -64 46 -31 82 20 22 41 23
65 1z m254 -24 c16 -17 16 -22 4 -30 -15 -11 -101 -51 -132 -62 -16 -6 -15
-11 10 -54 76 -128 259 -434 341 -569 50 -83 91 -156 91 -163 0 -6 -12 -11
-28 -11 -25 0 -44 28 -262 392 -161 268 -235 402 -235 422 0 26 4 29 66 45 36
9 77 24 90 33 31 22 32 22 55 -3z m-491 -150 c40 -11 135 -94 135 -118 0 -7
-21 -21 -47 -33 -91 -40 -228 -1 -297 85 -30 37 -30 39 -11 50 60 36 133 41
220 16z m-1408 -1572 c41 -22 53 -44 53 -99 0 -37 -5 -49 -32 -75 -18 -17 -41
-35 -52 -40 -16 -9 -14 -12 19 -29 55 -27 75 -71 75 -166 0 -72 2 -79 25 -94
14 -9 22 -20 19 -25 -7 -12 -184 -12 -184 0 0 5 11 16 25 25 23 15 25 22 25
97 0 124 -38 171 -108 135 -44 -23 -70 -72 -76 -144 -4 -58 -3 -65 20 -84 13
-12 24 -25 24 -30 0 -4 -40 -8 -90 -8 -49 0 -90 4 -90 9 0 5 10 15 23 23 22
15 22 18 22 243 0 225 0 227 -23 246 -44 35 -19 41 142 37 118 -3 158 -8 183
-21z m586 -29 c4 -28 4 -54 1 -57 -3 -3 -17 2 -32 12 -69 43 -108 57 -169 57
l-63 0 0 -77 c0 -98 12 -113 87 -113 41 0 57 5 70 20 10 11 21 20 25 20 13 0
68 -92 68 -112 0 -23 -5 -23 -43 4 -22 16 -50 24 -93 26 -56 4 -63 2 -87 -23
-29 -32 -40 -87 -27 -135 12 -43 18 -52 50 -73 68 -47 200 11 200 88 0 8 7 15
15 15 22 0 19 -46 -5 -86 -61 -97 -270 -99 -330 -2 -17 27 -20 46 -18 102 3
62 7 71 36 97 l32 29 -32 29 c-29 26 -32 35 -36 97 -3 56 -9 74 -28 95 -13 14
-21 28 -17 32 3 4 93 7 198 7 l192 0 6 -52z m444 29 c44 -23 63 -54 63 -103 0
-57 -24 -83 -133 -148 -71 -41 -97 -63 -115 -94 -38 -68 -25 -162 24 -162 8 0
14 -9 14 -20 0 -18 -7 -20 -82 -20 -101 0 -125 11 -88 40 l25 19 0 226 c0 225
0 227 -23 246 -44 35 -19 41 137 37 113 -3 153 -8 178 -21z m333 10 c0 -8 -9
-22 -21 -33 -20 -18 -20 -27 -17 -199 3 -150 6 -186 22 -216 50 -98 188 -90
232 14 15 33 19 76 22 211 l4 168 -26 27 c-15 15 -23 30 -19 34 10 11 111 8
118 -3 4 -6 -5 -20 -18 -31 -25 -19 -25 -20 -29 -207 -3 -178 -4 -189 -28
-232 -38 -67 -87 -92 -177 -88 -80 4 -111 20 -150 78 -36 52 -43 95 -43 266 0
148 -2 162 -20 179 -40 36 -26 45 65 45 65 0 85 -3 85 -13z m677 -197 c81
-115 152 -209 156 -210 5 0 7 81 5 179 -3 172 -4 180 -25 199 -37 32 -29 42
36 42 33 0 62 -4 65 -9 3 -4 -6 -19 -19 -31 l-25 -23 0 -249 0 -248 -27 0
c-29 0 -57 37 -283 361 -30 43 -58 79 -62 79 -3 0 -7 -83 -8 -184 -1 -183 0
-184 25 -214 14 -16 25 -33 25 -36 0 -3 -27 -6 -60 -6 -65 0 -76 12 -40 43 19
16 20 29 20 241 0 217 -1 225 -21 240 -31 21 -14 36 41 36 l49 0 148 -210z
m759 195 c4 -9 -20 -56 -56 -112 -34 -54 -104 -165 -156 -246 -52 -82 -94
-151 -94 -154 0 -3 51 -4 113 -1 94 3 119 8 148 26 38 23 59 58 59 98 0 37
-59 94 -98 94 -34 0 -50 16 -34 32 8 8 24 7 54 -1 75 -22 108 -63 108 -137 0
-59 -33 -102 -99 -130 -40 -17 -356 -20 -366 -4 -3 5 14 40 38 77 78 121 133
206 205 321 l72 112 -78 0 c-80 0 -160 -27 -191 -63 -7 -10 -22 -17 -33 -17
-16 0 -18 5 -13 38 15 92 -10 82 216 82 168 0 201 -2 205 -15z m528 -36 c8
-57 -7 -89 -25 -56 -23 41 -118 72 -206 68 l-33 -1 0 -73 c0 -99 13 -117 86
-117 42 0 58 5 71 20 10 11 22 20 28 20 5 -1 25 -26 43 -57 38 -65 31 -87 -17
-52 -22 16 -49 24 -92 27 -55 4 -63 2 -88 -23 -79 -75 -25 -225 81 -225 73 0
138 49 138 105 0 8 7 15 15 15 20 0 20 -44 -1 -79 -29 -49 -80 -75 -154 -79
-84 -5 -150 20 -180 70 -36 60 -21 175 29 210 22 15 22 15 -14 51 -33 33 -35
39 -35 99 0 52 -4 68 -20 83 -46 41 -32 45 174 45 l193 0 7 -51z m286 40 c0
-6 -11 -20 -24 -30 l-25 -20 2 -232 2 -232 50 1 c52 1 139 37 164 68 34 40 50
5 35 -73 l-6 -31 -189 0 c-161 0 -189 2 -189 15 0 8 4 15 9 15 5 0 17 7 25 16
14 13 16 49 16 234 l0 219 -25 19 c-43 34 -32 42 65 42 59 0 90 -4 90 -11z
m-3125 -879 c0 -11 -14 -16 -57 -18 l-58 -3 0 -34 c0 -35 0 -35 45 -35 38 0
45 -3 45 -20 0 -17 -7 -20 -45 -20 l-45 0 0 -55 c0 -42 -3 -55 -15 -55 -13 0
-15 20 -15 123 0 68 3 127 7 131 4 4 37 6 73 4 50 -2 65 -6 65 -18z m130 -110
c0 -90 -3 -124 -12 -127 -10 -4 -13 26 -13 127 0 101 3 131 13 128 9 -4 12
-38 12 -128z m1189 109 c29 -23 35 -59 10 -59 -9 0 -18 9 -21 19 -6 24 -37 33
-59 17 -26 -20 -12 -49 34 -71 51 -24 62 -39 62 -82 0 -59 -87 -87 -130 -41
-26 28 -26 58 0 58 13 0 20 -7 20 -19 0 -25 33 -36 60 -21 36 19 22 52 -33 78
-53 25 -72 57 -57 96 18 48 70 59 114 25z m793 -13 c-4 -9 -11 -16 -17 -16
-11 0 -14 33 -3 44 11 10 26 -11 20 -28z m-1187 -101 c0 -104 -2 -125 -15
-125 -13 0 -15 21 -15 125 0 104 2 125 15 125 13 0 15 -21 15 -125z m-575 51
c27 -20 27 -143 -1 -163 -24 -18 -69 -17 -88 3 -23 22 -22 131 1 156 19 21 62
24 88 4z m205 -6 c0 -13 -7 -20 -20 -20 -17 0 -19 -8 -22 -72 -2 -57 -6 -73
-18 -73 -12 0 -16 18 -18 87 -3 83 -2 87 20 91 49 9 58 7 58 -13z m204 4 c12
-11 16 -35 16 -85 0 -38 -1 -72 -2 -76 -2 -3 -22 -8 -45 -10 -49 -4 -73 15
-73 56 0 33 15 48 54 55 35 6 40 11 32 31 -7 19 -46 11 -59 -11 -11 -19 -27
-17 -27 3 0 45 71 71 104 37z m800 0 c9 -8 16 -31 16 -50 0 -34 0 -34 -46 -34
-44 0 -45 -1 -42 -27 4 -36 46 -46 55 -14 8 32 35 27 31 -6 -4 -32 -40 -50
-81 -39 -30 7 -39 30 -40 107 -1 40 3 54 18 65 25 19 70 18 89 -2z m206 -4 c0
-12 -8 -20 -22 -22 -21 -3 -23 -9 -26 -75 -2 -56 -6 -73 -17 -73 -12 0 -15 18
-15 93 l0 92 40 2 c33 2 40 -1 40 -17z m125 -30 c9 -27 20 -50 25 -50 5 0 16
23 25 50 16 48 28 60 40 41 3 -5 -9 -48 -26 -96 -37 -101 -41 -100 -83 10 -30
81 -32 95 -12 95 8 0 21 -21 31 -50z m220 -45 c0 -62 -4 -90 -12 -92 -10 -4
-13 19 -13 92 0 73 3 96 13 93 8 -3 12 -31 12 -93z m227 78 c21 -19 24 -53 4
-53 -7 0 -16 9 -19 21 -4 15 -12 20 -29 17 -21 -3 -23 -8 -23 -63 0 -55 2 -60
23 -63 17 -3 25 2 29 17 6 25 33 28 33 4 0 -27 -31 -53 -65 -53 -46 0 -55 15
-55 97 0 58 3 74 18 82 26 16 63 13 84 -6z m229 7 c14 -8 19 -21 19 -50 0 -39
0 -39 -42 -42 -38 -3 -43 -6 -43 -28 0 -33 44 -42 52 -11 7 26 33 28 33 2 0
-45 -71 -69 -104 -35 -24 23 -22 149 2 163 22 13 58 14 83 1z m-2803 -52 l-3
-23 -289 -3 c-173 -1 -294 2 -299 7 -5 5 -7 17 -4 25 6 14 43 16 302 16 l296
0 -3 -22z m3570 -5 l3 -23 -325 0 -326 0 0 25 0 25 323 -2 322 -3 3 -22z"/>
<path d="M1625 3282 c-6 -37 -4 -222 3 -222 14 0 162 124 167 140 12 38 8 80
-10 100 -15 16 -31 20 -86 20 l-67 0 -7 -38z"/>
<path d="M2662 3185 c-1 -74 1 -135 3 -135 14 0 145 92 159 111 9 13 16 43 16
67 0 65 -33 92 -115 92 l-63 0 0 -135z"/>
<path d="M2604 2376 c-3 -7 -4 -35 -2 -62 3 -45 5 -49 28 -49 23 0 25 4 28 54
2 37 -1 57 -10 62 -20 13 -38 11 -44 -5z"/>
<path d="M3023 2313 c-21 -8 -15 -41 8 -48 25 -8 42 6 37 31 -3 19 -23 27 -45
17z"/>
<path d="M3814 2375 c-9 -22 3 -33 31 -27 28 5 34 27 9 36 -24 9 -34 7 -40 -9z"/>
<path d="M4824 2376 c-9 -23 3 -34 31 -28 17 3 25 10 23 21 -4 21 -46 27 -54
7z"/>
</g>
</svg>
